<svg width="184" height="51" viewBox="0 0 184 51" fill="none" xmlns="http://www.w3.org/2000/svg">
<path d="M22.518 1.78076C24.2864 0.689187 26.5195 0.689187 28.2879 1.78076L33.027 4.70595C33.5276 5.01495 34.0746 5.24151 34.647 5.37699L40.0664 6.65957C42.0888 7.13818 43.6678 8.7172 44.1464 10.7395L45.429 16.159C45.5645 16.7314 45.791 17.2784 46.1 17.779L49.0252 22.518C50.1168 24.2864 50.1168 26.5195 49.0252 28.2879L46.1 33.027C45.791 33.5276 45.5645 34.0746 45.429 34.647L44.1464 40.0664C43.6678 42.0888 42.0888 43.6678 40.0664 44.1464L34.647 45.429C34.0746 45.5645 33.5276 45.791 33.027 46.1L28.2879 49.0252C26.5195 50.1168 24.2864 50.1168 22.518 49.0252L17.779 46.1C17.2784 45.791 16.7314 45.5645 16.159 45.429L10.7395 44.1464C8.7172 43.6678 7.13818 42.0888 6.65957 40.0664L5.37699 34.647C5.24151 34.0746 5.01495 33.5276 4.70595 33.027L1.78076 28.2879C0.689187 26.5195 0.689187 24.2864 1.78076 22.518L4.70595 17.779C5.01495 17.2784 5.24151 16.7314 5.37699 16.159L6.65957 10.7395C7.13818 8.7172 8.7172 7.13818 10.7395 6.65957L16.159 5.37699C16.7314 5.24151 17.2784 5.01495 17.779 4.70595L22.518 1.78076Z" fill="url(#paint0_linear_22_6639)"/>
<path d="M37.0746 33.8841C37.0746 34.1803 36.9243 34.3284 36.6237 34.3284C36.1108 34.3284 35.598 34.3006 35.0851 34.2451C34.5723 34.208 34.0594 34.1895 33.5466 34.1895C33.0337 34.1895 32.5121 34.208 31.9815 34.2451C31.4687 34.3006 30.947 34.3284 30.4165 34.3284C30.3104 34.3284 30.2219 34.2821 30.1512 34.1895C30.0981 34.0785 30.0716 33.9767 30.0716 33.8841C30.0716 33.6065 30.2308 33.4676 30.5491 33.4676C30.6906 33.4676 30.832 33.4769 30.9735 33.4954C31.1327 33.4954 31.283 33.4954 31.4245 33.4954C31.6367 33.4954 31.7605 33.4306 31.7958 33.301C31.8312 33.1529 31.8489 32.9864 31.8489 32.8012V24.5549C31.8489 24.0551 31.8312 23.509 31.7958 22.9167C31.7782 22.3059 31.6721 21.7691 31.4775 21.3063C31.3184 20.8991 31.115 20.6214 30.8674 20.4733C30.6375 20.3067 30.3192 20.2234 29.9125 20.2234C29.4173 20.2234 28.9221 20.4271 28.427 20.8343C27.9318 21.2415 27.5339 21.6302 27.2333 22.0004C27.304 22.3706 27.3394 22.7501 27.3394 23.1388C27.3571 23.509 27.3659 23.8792 27.3659 24.2494C27.3659 25.6747 27.3659 27.1 27.3659 28.5253C27.3659 29.9506 27.3659 31.3759 27.3659 32.8012C27.3659 33.0234 27.4013 33.1992 27.472 33.3288C27.5605 33.4584 27.7196 33.5232 27.9495 33.5232C28.0733 33.5232 28.1882 33.5139 28.2943 33.4954C28.4181 33.4769 28.5419 33.4676 28.6657 33.4676C28.931 33.4676 29.0636 33.6065 29.0636 33.8841C29.0636 34.1803 28.9133 34.3284 28.6127 34.3284C28.1175 34.3284 27.6135 34.3006 27.1007 34.2451C26.6055 34.208 26.1015 34.1895 25.5887 34.1895C25.0758 34.1895 24.563 34.208 24.0501 34.2451C23.5373 34.3006 23.0244 34.3284 22.5116 34.3284C22.3878 34.3284 22.2994 34.2821 22.2463 34.1895C22.1933 34.0785 22.1667 33.9767 22.1667 33.8841C22.1667 33.6805 22.2463 33.5602 22.4055 33.5232C22.5646 33.4676 22.7415 33.4491 22.936 33.4676C23.1482 33.4861 23.3074 33.4954 23.4135 33.4954C23.6611 33.4954 23.8114 33.4399 23.8644 33.3288C23.9175 33.1992 23.944 33.0234 23.944 32.8012C23.944 31.4315 23.9352 30.0617 23.9175 28.6919C23.9175 27.3037 23.9175 25.9246 23.9175 24.5549C23.9175 24.0551 23.8998 23.509 23.8644 22.9167C23.8467 22.3059 23.7406 21.7691 23.5461 21.3063C23.3693 20.8806 23.1571 20.6029 22.9095 20.4733C22.6619 20.3438 22.3259 20.279 21.9015 20.279C21.6716 20.279 21.3886 20.3993 21.0526 20.6399C20.7166 20.862 20.3983 21.1212 20.0977 21.4174C19.797 21.7135 19.5671 21.9542 19.408 22.1393C19.408 23.9163 19.408 25.6933 19.408 27.4703C19.408 29.2473 19.408 31.0243 19.408 32.8012C19.408 33.0234 19.4434 33.1992 19.5141 33.3288C19.6025 33.4584 19.7617 33.5232 19.9916 33.5232C20.1154 33.5232 20.2391 33.5139 20.3629 33.4954C20.4867 33.4769 20.6105 33.4676 20.7343 33.4676C20.9819 33.4676 21.1057 33.6065 21.1057 33.8841C21.1057 34.1803 20.9642 34.3284 20.6813 34.3284C20.1684 34.3284 19.6556 34.3098 19.1427 34.2728C18.6476 34.2358 18.1436 34.2173 17.6307 34.2173C17.1002 34.2173 16.5697 34.2358 16.0391 34.2728C15.5263 34.3098 15.0046 34.3284 14.4741 34.3284C14.3503 34.3284 14.253 34.2821 14.1823 34.1895C14.1292 34.0785 14.1027 33.9767 14.1027 33.8841C14.1027 33.6065 14.253 33.4676 14.5536 33.4676C14.6951 33.4676 14.8366 33.4769 14.9781 33.4954C15.1372 33.4954 15.2964 33.4954 15.4555 33.4954C15.7031 33.4954 15.8446 33.3658 15.88 33.1067C15.933 32.8475 15.9595 32.6254 15.9595 32.4403C15.9595 30.6818 15.9595 28.9233 15.9595 27.1648C15.9595 25.4063 15.9595 23.6479 15.9595 21.8894C15.9595 21.6858 15.933 21.4636 15.88 21.223C15.8269 20.9824 15.6589 20.862 15.376 20.862C15.1814 20.862 14.9781 20.8806 14.7659 20.9176C14.5713 20.9361 14.3768 20.9453 14.1823 20.9453C14.0762 20.9453 13.9701 20.9176 13.864 20.862C13.7755 20.788 13.7313 20.6862 13.7313 20.5566C13.7313 20.4271 13.7667 20.3345 13.8374 20.279C13.9259 20.2234 14.0054 20.1864 14.0762 20.1679C14.3061 20.0939 14.5448 20.0476 14.7924 20.0291C15.04 20.0106 15.2787 19.9828 15.5086 19.9458C15.7208 19.8903 16.0214 19.807 16.4105 19.6959C16.8172 19.5848 17.2151 19.483 17.6042 19.3905C17.9932 19.2794 18.2585 19.2239 18.4 19.2239C18.6122 19.2239 18.7625 19.3257 18.8509 19.5293C18.9747 19.7329 19.0631 19.9735 19.1162 20.2512C19.1692 20.5103 19.2311 20.7602 19.3019 21.0009C19.9385 20.4456 20.5751 20.0291 21.2118 19.7514C21.8484 19.4553 22.5823 19.3072 23.4135 19.3072C24.0855 19.3072 24.7398 19.446 25.3764 19.7237C26.0308 20.0013 26.5259 20.4548 26.8619 21.0842C27.4809 20.5103 28.1263 20.0568 28.7984 19.7237C29.4704 19.3905 30.2131 19.2239 31.0266 19.2239C32.2468 19.2239 33.1575 19.3997 33.7588 19.7514C34.3601 20.1031 34.758 20.6492 34.9525 21.3896C35.1647 22.1115 35.2708 23.0648 35.2708 24.2494C35.2708 25.6747 35.2708 27.1 35.2708 28.5253C35.2708 29.9506 35.2708 31.3759 35.2708 32.8012C35.2708 33.0974 35.3415 33.2918 35.483 33.3843C35.6422 33.4769 35.8279 33.5139 36.0401 33.4954C36.27 33.4769 36.4822 33.4676 36.6767 33.4676C36.942 33.4676 37.0746 33.6065 37.0746 33.8841Z" fill="white"/>
<path d="M63.5417 37.0746V13.0448H68.2447L76.9985 27.291L73.9089 27.2567L82.7656 13.0448H87.2626V37.0746H82.2164V28.8358C82.2164 26.7761 82.2621 24.9224 82.3537 23.2746C82.4681 21.6269 82.6512 19.9905 82.9029 18.3657L83.5209 19.9791L76.4835 30.8955H74.2179L67.3179 20.0477L67.9014 18.3657C68.1532 19.899 68.3248 21.4781 68.4164 23.103C68.5308 24.705 68.588 26.6159 68.588 28.8358V37.0746H63.5417Z" fill="#628EFF"/>
<path d="M101.442 37.4179C99.4737 37.4179 97.7573 37.0174 96.2926 36.2164C94.8279 35.4154 93.6837 34.3169 92.8598 32.9209C92.0359 31.5249 91.624 29.9229 91.624 28.1149C91.624 26.7189 91.8528 25.4373 92.3105 24.2701C92.7682 23.103 93.409 22.096 94.2329 21.2492C95.0568 20.3796 96.0294 19.7159 97.1508 19.2582C98.2951 18.7776 99.5309 18.5373 100.858 18.5373C102.094 18.5373 103.238 18.7662 104.291 19.2239C105.344 19.6587 106.248 20.288 107.003 21.1119C107.781 21.9129 108.376 22.8627 108.788 23.9612C109.2 25.0597 109.383 26.2612 109.337 27.5657L109.303 29.0761H94.7135L93.924 26.0895H105.287L104.737 26.7075V25.9522C104.692 25.3343 104.486 24.7736 104.119 24.2701C103.776 23.7667 103.33 23.3776 102.781 23.103C102.231 22.8283 101.614 22.691 100.927 22.691C99.92 22.691 99.0618 22.8856 98.3523 23.2746C97.6657 23.6637 97.1394 24.2358 96.7732 24.991C96.407 25.7463 96.224 26.6617 96.224 27.7373C96.224 28.8358 96.4528 29.7856 96.9105 30.5866C97.3911 31.3876 98.0548 32.0169 98.9016 32.4746C99.7712 32.9094 100.79 33.1269 101.957 33.1269C102.758 33.1269 103.49 33.001 104.154 32.7492C104.817 32.4975 105.527 32.0627 106.282 31.4448L108.616 34.706C107.953 35.301 107.22 35.8045 106.419 36.2164C105.618 36.6055 104.795 36.903 103.948 37.1089C103.101 37.3149 102.266 37.4179 101.442 37.4179Z" fill="#628EFF"/>
<path d="M120.046 37.4179C118.467 37.4179 117.048 37.0174 115.789 36.2164C114.53 35.3925 113.535 34.2826 112.802 32.8866C112.093 31.4677 111.738 29.8313 111.738 27.9776C111.738 26.1696 112.093 24.5562 112.802 23.1373C113.535 21.7184 114.519 20.597 115.755 19.7731C117.013 18.9492 118.444 18.5373 120.046 18.5373C120.892 18.5373 121.705 18.6746 122.483 18.9492C123.284 19.201 123.993 19.5557 124.611 20.0134C125.252 20.4711 125.767 20.9861 126.156 21.5582C126.545 22.1075 126.763 22.691 126.808 23.3089L125.573 23.5149V11.6716H130.447V37.0746H125.847L125.641 32.8866L126.602 32.9895C126.557 33.5617 126.351 34.1109 125.984 34.6373C125.618 35.1637 125.126 35.6443 124.508 36.0791C123.913 36.491 123.227 36.8229 122.449 37.0746C121.693 37.3035 120.892 37.4179 120.046 37.4179ZM121.144 33.3672C122.06 33.3672 122.861 33.1383 123.547 32.6806C124.234 32.2229 124.772 31.5935 125.161 30.7925C125.55 29.9915 125.744 29.0532 125.744 27.9776C125.744 26.9249 125.55 25.998 125.161 25.197C124.772 24.3731 124.234 23.7438 123.547 23.3089C122.861 22.8512 122.06 22.6224 121.144 22.6224C120.229 22.6224 119.428 22.8512 118.741 23.3089C118.078 23.7438 117.551 24.3731 117.162 25.197C116.796 25.998 116.613 26.9249 116.613 27.9776C116.613 29.0532 116.796 29.9915 117.162 30.7925C117.551 31.5935 118.078 32.2229 118.741 32.6806C119.428 33.1383 120.229 33.3672 121.144 33.3672Z" fill="#628EFF"/>
<path d="M143.816 37.4179C141.848 37.4179 140.131 37.0174 138.667 36.2164C137.202 35.4154 136.058 34.3169 135.234 32.9209C134.41 31.5249 133.998 29.9229 133.998 28.1149C133.998 26.7189 134.227 25.4373 134.685 24.2701C135.142 23.103 135.783 22.096 136.607 21.2492C137.431 20.3796 138.403 19.7159 139.525 19.2582C140.669 18.7776 141.905 18.5373 143.232 18.5373C144.468 18.5373 145.612 18.7662 146.665 19.2239C147.718 19.6587 148.622 20.288 149.377 21.1119C150.155 21.9129 150.75 22.8627 151.162 23.9612C151.574 25.0597 151.757 26.2612 151.711 27.5657L151.677 29.0761H137.088L136.298 26.0895H147.661L147.111 26.7075V25.9522C147.066 25.3343 146.86 24.7736 146.494 24.2701C146.15 23.7667 145.704 23.3776 145.155 23.103C144.605 22.8283 143.988 22.691 143.301 22.691C142.294 22.691 141.436 22.8856 140.726 23.2746C140.04 23.6637 139.513 24.2358 139.147 24.991C138.781 25.7463 138.598 26.6617 138.598 27.7373C138.598 28.8358 138.827 29.7856 139.285 30.5866C139.765 31.3876 140.429 32.0169 141.276 32.4746C142.145 32.9094 143.164 33.1269 144.331 33.1269C145.132 33.1269 145.864 33.001 146.528 32.7492C147.192 32.4975 147.901 32.0627 148.656 31.4448L150.991 34.706C150.327 35.301 149.595 35.8045 148.794 36.2164C147.993 36.6055 147.169 36.903 146.322 37.1089C145.475 37.3149 144.64 37.4179 143.816 37.4179Z" fill="#628EFF"/>
<path d="M161.424 37.4179C159.731 37.4179 158.22 37.1433 156.893 36.594C155.588 36.0219 154.536 35.2438 153.735 34.2597L156.756 31.6507C157.465 32.406 158.255 32.9552 159.124 33.2985C159.994 33.6189 160.864 33.7791 161.733 33.7791C162.076 33.7791 162.385 33.7448 162.66 33.6761C162.958 33.5846 163.209 33.4701 163.415 33.3328C163.621 33.1726 163.77 32.9895 163.862 32.7836C163.976 32.5547 164.033 32.3144 164.033 32.0627C164.033 31.5592 163.827 31.1587 163.415 30.8612C163.186 30.7468 162.832 30.6094 162.351 30.4492C161.87 30.2662 161.253 30.0716 160.497 29.8657C159.33 29.5681 158.335 29.2249 157.511 28.8358C156.71 28.4239 156.069 27.9662 155.588 27.4627C155.176 26.9821 154.856 26.4672 154.627 25.9179C154.421 25.3458 154.318 24.7164 154.318 24.0298C154.318 23.206 154.501 22.4622 154.868 21.7985C155.234 21.1119 155.737 20.5283 156.378 20.0477C157.042 19.5672 157.797 19.201 158.644 18.9492C159.49 18.6746 160.383 18.5373 161.321 18.5373C162.26 18.5373 163.175 18.6517 164.068 18.8806C164.96 19.1094 165.784 19.4413 166.539 19.8761C167.317 20.288 167.992 20.7801 168.565 21.3522L165.956 24.2358C165.544 23.8468 165.074 23.492 164.548 23.1716C164.045 22.8512 163.518 22.5995 162.969 22.4164C162.42 22.2333 161.928 22.1418 161.493 22.1418C161.104 22.1418 160.749 22.1761 160.429 22.2448C160.131 22.3134 159.879 22.4164 159.673 22.5537C159.468 22.691 159.307 22.8741 159.193 23.103C159.101 23.3089 159.056 23.5378 159.056 23.7895C159.056 24.0413 159.113 24.2816 159.227 24.5104C159.365 24.7393 159.548 24.9338 159.776 25.094C160.028 25.2313 160.394 25.3915 160.875 25.5746C161.378 25.7577 162.054 25.9637 162.9 26.1925C163.999 26.49 164.926 26.8219 165.681 27.188C166.459 27.5542 167.077 27.9776 167.535 28.4582C167.924 28.8701 168.21 29.3393 168.393 29.8657C168.576 30.392 168.668 30.9756 168.668 31.6164C168.668 32.7378 168.347 33.7448 167.706 34.6373C167.088 35.507 166.23 36.1935 165.132 36.697C164.033 37.1776 162.797 37.4179 161.424 37.4179Z" fill="#628EFF"/>
<path d="M173.893 37.0746V14.3149H178.768V37.0746H173.893ZM170.495 23.2746V18.9149H182.476V23.2746H170.495Z" fill="#628EFF"/>
<defs>
<linearGradient id="paint0_linear_22_6639" x1="25.403" y1="0" x2="25.403" y2="50.806" gradientUnits="userSpaceOnUse">
<stop stop-color="#628EFF"/>
<stop offset="1" stop-color="#4B7DFE"/>
</linearGradient>
</defs>
</svg>
