<svg width="147" height="41" viewBox="0 0 147 41" fill="none" xmlns="http://www.w3.org/2000/svg">
<path d="M18.0674 1.42267C19.4803 0.5506 21.2643 0.5506 22.6771 1.42267L26.4888 3.77543C26.8887 4.02229 27.3257 4.20329 27.783 4.31153L32.1419 5.34312C33.7576 5.72549 35.0191 6.98699 35.4014 8.60265L36.433 12.9615C36.5413 13.4189 36.7223 13.8559 36.9691 14.2558L39.3219 18.0674C40.194 19.4803 40.194 21.2643 39.3219 22.6771L36.9691 26.4888C36.7223 26.8887 36.5413 27.3257 36.433 27.783L35.4014 32.1419C35.0191 33.7576 33.7576 35.0191 32.1419 35.4014L27.783 36.433C27.3257 36.5413 26.8887 36.7223 26.4888 36.9691L22.6771 39.3219C21.2643 40.194 19.4803 40.194 18.0674 39.3219L14.2558 36.9691C13.8559 36.7223 13.4189 36.5413 12.9615 36.433L8.60265 35.4014C6.98699 35.0191 5.72549 33.7576 5.34312 32.1419L4.31153 27.783C4.20329 27.3257 4.02229 26.8887 3.77543 26.4888L1.42267 22.6771C0.5506 21.2643 0.5506 19.4803 1.42267 18.0674L3.77543 14.2558C4.02229 13.8559 4.20329 13.4189 4.31153 12.9615L5.34312 8.60265C5.72549 6.98699 6.98699 5.72549 8.60265 5.34312L12.9615 4.31153C13.4189 4.20329 13.8559 4.02229 14.2558 3.77543L18.0674 1.42267Z" fill="url(#paint0_linear_140_6029)"/>
<path d="M29.6194 27.0705C29.6194 27.3071 29.4993 27.4254 29.2591 27.4254C28.8494 27.4254 28.4397 27.4032 28.03 27.3588C27.6203 27.3293 27.2105 27.3145 26.8008 27.3145C26.3911 27.3145 25.9743 27.3293 25.5505 27.3588C25.1408 27.4032 24.724 27.4254 24.3001 27.4254C24.2154 27.4254 24.1447 27.3884 24.0882 27.3145C24.0458 27.2257 24.0246 27.1444 24.0246 27.0705C24.0246 26.8486 24.1518 26.7377 24.4061 26.7377C24.5191 26.7377 24.6321 26.7451 24.7452 26.7599C24.8723 26.7599 24.9924 26.7599 25.1054 26.7599C25.275 26.7599 25.3739 26.7082 25.4021 26.6046C25.4304 26.4863 25.4445 26.3532 25.4445 26.2054V19.6172C25.4445 19.2179 25.4304 18.7817 25.4021 18.3085C25.388 17.8204 25.3032 17.3916 25.1478 17.0219C25.0207 16.6965 24.8582 16.4747 24.6604 16.3564C24.4767 16.2233 24.2224 16.1568 23.8975 16.1568C23.5019 16.1568 23.1063 16.3194 22.7107 16.6448C22.3151 16.9701 21.9972 17.2807 21.7571 17.5764C21.8136 17.8722 21.8418 18.1754 21.8418 18.4859C21.856 18.7817 21.863 19.0774 21.863 19.3732C21.863 20.5119 21.863 21.6506 21.863 22.7893C21.863 23.928 21.863 25.0667 21.863 26.2054C21.863 26.3828 21.8913 26.5233 21.9478 26.6268C22.0184 26.7303 22.1456 26.7821 22.3292 26.7821C22.4281 26.7821 22.52 26.7747 22.6047 26.7599C22.7036 26.7451 22.8025 26.7377 22.9014 26.7377C23.1134 26.7377 23.2193 26.8486 23.2193 27.0705C23.2193 27.3071 23.0992 27.4254 22.8591 27.4254C22.4635 27.4254 22.0608 27.4032 21.6511 27.3588C21.2555 27.3293 20.8528 27.3145 20.4431 27.3145C20.0334 27.3145 19.6237 27.3293 19.214 27.3588C18.8043 27.4032 18.3945 27.4254 17.9848 27.4254C17.8859 27.4254 17.8153 27.3884 17.7729 27.3145C17.7305 27.2257 17.7093 27.1444 17.7093 27.0705C17.7093 26.9078 17.7729 26.8117 17.9 26.7821C18.0272 26.7377 18.1685 26.7229 18.3239 26.7377C18.4934 26.7525 18.6206 26.7599 18.7054 26.7599C18.9032 26.7599 19.0232 26.7155 19.0656 26.6268C19.108 26.5233 19.1292 26.3828 19.1292 26.2054C19.1292 25.111 19.1221 24.0167 19.108 22.9224C19.108 21.8133 19.108 20.7115 19.108 19.6172C19.108 19.2179 19.0939 18.7817 19.0656 18.3085C19.0515 17.8204 18.9667 17.3916 18.8113 17.0219C18.67 16.6818 18.5005 16.4599 18.3027 16.3564C18.1049 16.2529 17.8365 16.2011 17.4974 16.2011C17.3137 16.2011 17.0877 16.2973 16.8192 16.4895C16.5508 16.667 16.2965 16.874 16.0563 17.1106C15.8161 17.3472 15.6325 17.5395 15.5053 17.6874C15.5053 19.107 15.5053 20.5267 15.5053 21.9464C15.5053 23.366 15.5053 24.7857 15.5053 26.2054C15.5053 26.3828 15.5336 26.5233 15.5901 26.6268C15.6607 26.7303 15.7879 26.7821 15.9715 26.7821C16.0704 26.7821 16.1693 26.7747 16.2682 26.7599C16.3671 26.7451 16.466 26.7377 16.5649 26.7377C16.7627 26.7377 16.8616 26.8486 16.8616 27.0705C16.8616 27.3071 16.7486 27.4254 16.5225 27.4254C16.1128 27.4254 15.7031 27.4106 15.2934 27.381C14.8978 27.3514 14.4951 27.3367 14.0854 27.3367C13.6616 27.3367 13.2377 27.3514 12.8139 27.381C12.4042 27.4106 11.9874 27.4254 11.5635 27.4254C11.4646 27.4254 11.3869 27.3884 11.3304 27.3145C11.288 27.2257 11.2668 27.1444 11.2668 27.0705C11.2668 26.8486 11.3869 26.7377 11.6271 26.7377C11.7401 26.7377 11.8532 26.7451 11.9662 26.7599C12.0933 26.7599 12.2205 26.7599 12.3477 26.7599C12.5455 26.7599 12.6585 26.6564 12.6867 26.4494C12.7291 26.2423 12.7503 26.0649 12.7503 25.917C12.7503 24.5121 12.7503 23.1072 12.7503 21.7024C12.7503 20.2975 12.7503 18.8926 12.7503 17.4877C12.7503 17.325 12.7291 17.1476 12.6867 16.9553C12.6443 16.7631 12.5101 16.667 12.2841 16.667C12.1287 16.667 11.9662 16.6818 11.7967 16.7113C11.6412 16.7261 11.4858 16.7335 11.3304 16.7335C11.2457 16.7335 11.1609 16.7113 11.0761 16.667C11.0055 16.6078 10.9702 16.5265 10.9702 16.423C10.9702 16.3194 10.9984 16.2455 11.0549 16.2011C11.1256 16.1568 11.1891 16.1272 11.2457 16.1124C11.4293 16.0533 11.6201 16.0163 11.8178 16.0015C12.0156 15.9867 12.2064 15.9645 12.39 15.935C12.5596 15.8906 12.7998 15.824 13.1106 15.7353C13.4355 15.6466 13.7534 15.5652 14.0642 15.4913C14.3751 15.4026 14.587 15.3582 14.7 15.3582C14.8695 15.3582 14.9896 15.4396 15.0603 15.6022C15.1592 15.7649 15.2298 15.9571 15.2722 16.179C15.3146 16.386 15.364 16.5856 15.4205 16.7779C15.9292 16.3342 16.4378 16.0015 16.9464 15.7797C17.455 15.5431 18.0413 15.4248 18.7054 15.4248C19.2422 15.4248 19.765 15.5357 20.2736 15.7575C20.7963 15.9793 21.1919 16.3416 21.4604 16.8444C21.9548 16.386 22.4705 16.0237 23.0074 15.7575C23.5443 15.4913 24.1377 15.3582 24.7876 15.3582C25.7624 15.3582 26.49 15.4987 26.9704 15.7797C27.4507 16.0607 27.7686 16.4969 27.924 17.0884C28.0936 17.6652 28.1783 18.4268 28.1783 19.3732C28.1783 20.5119 28.1783 21.6506 28.1783 22.7893C28.1783 23.928 28.1783 25.0667 28.1783 26.2054C28.1783 26.442 28.2348 26.5972 28.3479 26.6712C28.475 26.7451 28.6234 26.7747 28.7929 26.7599C28.9766 26.7451 29.1461 26.7377 29.3015 26.7377C29.5134 26.7377 29.6194 26.8486 29.6194 27.0705Z" fill="white"/>
<path d="M50.7644 29.6194V10.4216H54.5217L61.5151 21.8032L59.0469 21.7757L66.1226 10.4216H69.7153V29.6194H65.6838V23.0373C65.6838 21.3918 65.7204 19.9108 65.7935 18.5944C65.8849 17.278 66.0312 15.9707 66.2323 14.6726L66.726 15.9616L61.1038 24.6828H59.2937L53.7812 16.0164L54.2474 14.6726C54.4485 15.8976 54.5857 17.1591 54.6588 18.4573C54.7502 19.7371 54.7959 21.2638 54.7959 23.0373V29.6194H50.7644Z" fill="#628EFF"/>
<path d="M81.0433 29.8936C79.4709 29.8936 78.0996 29.5737 76.9295 28.9338C75.7593 28.2938 74.8452 27.4162 74.187 26.3009C73.5287 25.1856 73.1996 23.9058 73.1996 22.4614C73.1996 21.3461 73.3825 20.3222 73.7482 19.3897C74.1138 18.4573 74.6258 17.6528 75.284 16.9763C75.9422 16.2815 76.7192 15.7513 77.6151 15.3856C78.5293 15.0017 79.5166 14.8097 80.5771 14.8097C81.5644 14.8097 82.4786 14.9925 83.3196 15.3582C84.1607 15.7056 84.8829 16.2084 85.4862 16.8666C86.1079 17.5065 86.5832 18.2653 86.9123 19.1429C87.2414 20.0205 87.3877 20.9804 87.3511 22.0226L87.3237 23.2293H75.6679L75.0371 20.8433H84.1149L83.6761 21.3369V20.7336C83.6396 20.2399 83.475 19.792 83.1825 19.3897C82.9082 18.9875 82.5517 18.6767 82.1129 18.4573C81.6741 18.2379 81.1804 18.1282 80.6319 18.1282C79.8274 18.1282 79.1418 18.2836 78.575 18.5944C78.0265 18.9052 77.606 19.3623 77.3135 19.9657C77.0209 20.569 76.8746 21.3004 76.8746 22.1597C76.8746 23.0373 77.0575 23.7961 77.4232 24.436C77.8071 25.0759 78.3373 25.5787 79.0138 25.9444C79.7086 26.2918 80.5222 26.4655 81.4547 26.4655C82.0946 26.4655 82.6797 26.3649 83.2099 26.1638C83.7401 25.9627 84.3069 25.6153 84.9103 25.1216L86.7752 27.727C86.245 28.2024 85.6599 28.6047 85.02 28.9338C84.3801 29.2446 83.7218 29.4823 83.0454 29.6468C82.3689 29.8114 81.7015 29.8936 81.0433 29.8936Z" fill="#628EFF"/>
<path d="M95.9061 29.8936C94.6446 29.8936 93.511 29.5737 92.5054 28.9338C91.4998 28.2755 90.7045 27.3888 90.1194 26.2735C89.5526 25.1399 89.2692 23.8326 89.2692 22.3517C89.2692 20.9073 89.5526 19.6183 90.1194 18.4847C90.7045 17.3511 91.4907 16.4552 92.478 15.797C93.4836 15.1388 94.6263 14.8097 95.9061 14.8097C96.5826 14.8097 97.2317 14.9194 97.8533 15.1388C98.4933 15.3399 99.0601 15.6233 99.5537 15.989C100.066 16.3547 100.477 16.766 100.788 17.2231C101.099 17.6619 101.272 18.1282 101.309 18.6218L100.322 18.7864V9.32462H104.216V29.6194H100.541L100.376 26.2735L101.144 26.3558C101.108 26.8129 100.943 27.2517 100.651 27.6722C100.358 28.0927 99.9651 28.4767 99.4714 28.8241C98.9961 29.1532 98.4476 29.4183 97.8259 29.6194C97.2226 29.8022 96.5826 29.8936 95.9061 29.8936ZM96.7837 26.6575C97.5151 26.6575 98.155 26.4746 98.7035 26.1089C99.252 25.7433 99.6817 25.2405 99.9925 24.6005C100.303 23.9606 100.459 23.211 100.459 22.3517C100.459 21.5106 100.303 20.7701 99.9925 20.1302C99.6817 19.472 99.252 18.9692 98.7035 18.6218C98.155 18.2561 97.5151 18.0733 96.7837 18.0733C96.0524 18.0733 95.4125 18.2561 94.864 18.6218C94.3337 18.9692 93.9132 19.472 93.6024 20.1302C93.3099 20.7701 93.1636 21.5106 93.1636 22.3517C93.1636 23.211 93.3099 23.9606 93.6024 24.6005C93.9132 25.2405 94.3337 25.7433 94.864 26.1089C95.4125 26.4746 96.0524 26.6575 96.7837 26.6575Z" fill="#628EFF"/>
<path d="M114.896 29.8936C113.324 29.8936 111.953 29.5737 110.783 28.9338C109.613 28.2938 108.698 27.4162 108.04 26.3009C107.382 25.1856 107.053 23.9058 107.053 22.4614C107.053 21.3461 107.236 20.3222 107.601 19.3897C107.967 18.4573 108.479 17.6528 109.137 16.9763C109.795 16.2815 110.572 15.7513 111.468 15.3856C112.383 15.0017 113.37 14.8097 114.43 14.8097C115.418 14.8097 116.332 14.9925 117.173 15.3582C118.014 15.7056 118.736 16.2084 119.339 16.8666C119.961 17.5065 120.436 18.2653 120.766 19.1429C121.095 20.0205 121.241 20.9804 121.204 22.0226L121.177 23.2293H109.521L108.89 20.8433H117.968L117.529 21.3369V20.7336C117.493 20.2399 117.328 19.792 117.036 19.3897C116.761 18.9875 116.405 18.6767 115.966 18.4573C115.527 18.2379 115.034 18.1282 114.485 18.1282C113.681 18.1282 112.995 18.2836 112.428 18.5944C111.88 18.9052 111.459 19.3623 111.167 19.9657C110.874 20.569 110.728 21.3004 110.728 22.1597C110.728 23.0373 110.911 23.7961 111.276 24.436C111.66 25.0759 112.191 25.5787 112.867 25.9444C113.562 26.2918 114.375 26.4655 115.308 26.4655C115.948 26.4655 116.533 26.3649 117.063 26.1638C117.593 25.9627 118.16 25.6153 118.763 25.1216L120.628 27.727C120.098 28.2024 119.513 28.6047 118.873 28.9338C118.233 29.2446 117.575 29.4823 116.899 29.6468C116.222 29.8114 115.555 29.8936 114.896 29.8936Z" fill="#628EFF"/>
<path d="M128.964 29.8936C127.611 29.8936 126.404 29.6742 125.344 29.2354C124.302 28.7783 123.461 28.1567 122.821 27.3705L125.234 25.2862C125.801 25.8895 126.432 26.3283 127.126 26.6026C127.821 26.8586 128.516 26.9866 129.211 26.9866C129.485 26.9866 129.732 26.9591 129.951 26.9043C130.189 26.8311 130.39 26.7397 130.555 26.63C130.719 26.502 130.838 26.3558 130.911 26.1912C131.003 26.0084 131.048 25.8164 131.048 25.6153C131.048 25.213 130.884 24.8931 130.555 24.6554C130.372 24.564 130.088 24.4543 129.704 24.3263C129.321 24.18 128.827 24.0246 128.224 23.8601C127.291 23.6224 126.496 23.3481 125.838 23.0373C125.198 22.7082 124.686 22.3425 124.302 21.9403C123.973 21.5563 123.717 21.145 123.534 20.7061C123.369 20.2491 123.287 19.7463 123.287 19.1977C123.287 18.5395 123.433 17.9453 123.726 17.4151C124.018 16.8666 124.421 16.4004 124.932 16.0164C125.463 15.6325 126.066 15.3399 126.743 15.1388C127.419 14.9194 128.132 14.8097 128.882 14.8097C129.631 14.8097 130.363 14.9011 131.076 15.0839C131.789 15.2668 132.447 15.5319 133.05 15.8793C133.672 16.2084 134.211 16.6015 134.668 17.0586L132.584 19.3623C132.255 19.0515 131.88 18.7681 131.46 18.5121C131.057 18.2561 130.637 18.055 130.198 17.9088C129.759 17.7625 129.366 17.6894 129.019 17.6894C128.708 17.6894 128.425 17.7168 128.169 17.7716C127.931 17.8265 127.73 17.9088 127.565 18.0185C127.401 18.1282 127.273 18.2744 127.181 18.4573C127.108 18.6218 127.072 18.8047 127.072 19.0058C127.072 19.2069 127.117 19.3989 127.209 19.5817C127.318 19.7645 127.465 19.92 127.648 20.0479C127.849 20.1576 128.141 20.2856 128.525 20.4319C128.927 20.5782 129.467 20.7427 130.143 20.9255C131.021 21.1632 131.761 21.4283 132.365 21.7209C132.986 22.0134 133.48 22.3517 133.846 22.7356C134.157 23.0647 134.385 23.4395 134.531 23.8601C134.678 24.2806 134.751 24.7468 134.751 25.2588C134.751 26.1547 134.495 26.9591 133.983 27.6722C133.489 28.367 132.804 28.9155 131.926 29.3177C131.048 29.7017 130.061 29.8936 128.964 29.8936Z" fill="#628EFF"/>
<path d="M138.926 29.6194V11.4364H142.82V29.6194H138.926ZM136.211 18.5944V15.1114H145.782V18.5944H136.211Z" fill="#628EFF"/>
<defs>
<linearGradient id="paint0_linear_140_6029" x1="20.3723" y1="0" x2="20.3723" y2="40.7446" gradientUnits="userSpaceOnUse">
<stop stop-color="#628EFF"/>
<stop offset="1" stop-color="#4B7DFE"/>
</linearGradient>
</defs>
</svg>
